<svg width="22" height="26" viewBox="0 0 22 26" fill="none" xmlns="http://www.w3.org/2000/svg">
<path d="M21.4202 6.02033L15.5896 0.521637C15.2336 0.185871 14.7603 0.000976562 14.2569 0.000976562H2.85678C1.81761 0.000976562 0.972168 0.798293 0.972168 1.77832V24.2236C0.972168 25.2037 1.81761 26.001 2.85678 26.001H20.0876C21.1267 26.001 21.9722 25.2037 21.9722 24.2236V7.27712C21.9722 6.80246 21.7762 6.35615 21.4202 6.02033ZM19.2145 6.09473H15.7799C15.6314 6.09473 15.5106 5.98082 15.5106 5.84082V2.60169L19.2145 6.09473ZM20.0876 24.4775H2.85678C2.70833 24.4775 2.58755 24.3636 2.58755 24.2236V1.77832C2.58755 1.63832 2.70833 1.52441 2.85678 1.52441H13.8952V5.84082C13.8952 6.82085 14.7407 7.61816 15.7799 7.61816H20.3568V24.2236C20.3568 24.3636 20.236 24.4775 20.0876 24.4775Z" fill="white"/>
<path d="M12.3391 11.6299H17.4852C17.9313 11.6299 18.2929 11.2888 18.2929 10.8682C18.2929 10.4475 17.9313 10.1064 17.4852 10.1064H12.3391C11.893 10.1064 11.5314 10.4475 11.5314 10.8682C11.5314 11.2888 11.893 11.6299 12.3391 11.6299Z" fill="white"/>
<path d="M12.3391 16.708H17.4852C17.9313 16.708 18.2929 16.367 18.2929 15.9463C18.2929 15.5256 17.9313 15.1846 17.4852 15.1846H12.3391C11.893 15.1846 11.5314 15.5256 11.5314 15.9463C11.5314 16.367 11.893 16.708 12.3391 16.708Z" fill="white"/>
<path d="M17.5083 20.2627H12.3391C11.893 20.2627 11.5314 20.6037 11.5314 21.0244C11.5314 21.4451 11.893 21.7861 12.3391 21.7861H17.5083C17.9544 21.7861 18.316 21.4451 18.316 21.0244C18.316 20.6037 17.9544 20.2627 17.5083 20.2627Z" fill="white"/>
<path d="M8.30903 8.79412L6.44638 10.5507L6.00716 10.1365C5.69178 9.83899 5.18035 9.83899 4.86492 10.1365C4.54949 10.4339 4.54949 10.9162 4.86492 11.2137L5.87529 12.1665C6.03301 12.3153 6.23972 12.3897 6.44638 12.3897C6.65305 12.3897 6.85982 12.3153 7.01748 12.1665L9.45122 9.87134C9.76665 9.57386 9.76665 9.0916 9.45122 8.79412C9.13584 8.49664 8.62441 8.49664 8.30903 8.79412Z" fill="white"/>
<path d="M8.30903 14.26L6.44638 16.0167L6.00716 15.6024C5.69178 15.305 5.18035 15.305 4.86492 15.6024C4.54949 15.8999 4.54949 16.3822 4.86492 16.6797L5.87529 17.6325C6.03301 17.7812 6.23972 17.8555 6.44638 17.8555C6.65305 17.8555 6.85982 17.7812 7.01748 17.6324L9.45122 15.3372C9.76665 15.0397 9.76665 14.5575 9.45122 14.26C9.13584 13.9626 8.62441 13.9626 8.30903 14.26Z" fill="white"/>
<path d="M8.30903 19.3382L6.44638 21.0948L6.00716 20.6806C5.69178 20.3831 5.18035 20.3831 4.86492 20.6806C4.54949 20.978 4.54949 21.4603 4.86492 21.7578L5.87529 22.7106C6.03301 22.8593 6.23972 22.9337 6.44638 22.9337C6.65305 22.9337 6.85982 22.8593 7.01748 22.7105L9.45122 20.4153C9.76665 20.1179 9.76665 19.6356 9.45122 19.3381C9.13584 19.0407 8.62441 19.0407 8.30903 19.3382Z" fill="white"/>
</svg>
