<svg width="27" height="32" viewBox="0 0 27 32" fill="none" xmlns="http://www.w3.org/2000/svg">
<path d="M26.3864 19.6364H25.1591V4.29545C25.1591 3.95654 24.8843 3.68182 24.5455 3.68182H15.3409V0.613636C15.3409 0.274725 15.0661 0 14.7273 0H12.2727C11.9339 0 11.6591 0.274725 11.6591 0.613636V3.68182H2.45455C2.1157 3.68182 1.84091 3.95654 1.84091 4.29545V19.6364H0.613636C0.274786 19.6364 0 19.9111 0 20.25V22.7045C0 23.0435 0.274786 23.3182 0.613636 23.3182H7.63793L4.3505 30.5506C4.26416 30.7405 4.28024 30.9613 4.39315 31.1368C4.50612 31.3121 4.70045 31.4182 4.90909 31.4182H7.97727C8.21794 31.4182 8.43633 31.2775 8.53593 31.0585L10.1017 27.6136H16.8983L18.4641 31.0585C18.5636 31.2775 18.7821 31.4182 19.0227 31.4182H22.0909C22.2995 31.4182 22.4939 31.3121 22.6069 31.1368C22.7198 30.9613 22.7359 30.7405 22.6495 30.5506L19.3621 23.3182H26.3864C26.7252 23.3182 27 23.0435 27 22.7045V20.25C27 19.9111 26.7252 19.6364 26.3864 19.6364ZM12.8864 1.22727H14.1136V3.68182H12.8864V1.22727ZM3.06818 4.90909H23.9318V19.6364H11.6591V17.7955C11.6591 17.4565 11.3843 17.1818 11.0455 17.1818H6.13636C5.79751 17.1818 5.52273 17.4565 5.52273 17.7955V19.6364H3.06818V4.90909ZM6.75 19.6364V18.4091H10.4318V19.6364H6.75ZM7.58215 30.1909H5.86213L8.98609 23.3182H10.7062L7.58215 30.1909ZM10.6596 26.3864L12.0542 23.3182H14.9458L16.3404 26.3864H10.6596ZM21.1379 30.1909H19.4179L16.2939 23.3182H18.014L21.1379 30.1909ZM25.7727 22.0909H1.22727V20.8636H25.7727V22.0909Z" fill="white"/>
<path d="M6.07151 15.0017L6.51554 14.1136H9.43884L9.88287 15.0017C9.99038 15.2167 10.2071 15.341 10.4322 15.341C10.5244 15.341 10.6181 15.3202 10.7061 15.2761C11.0093 15.1245 11.1321 14.7559 10.9806 14.4528L8.52606 9.5437C8.42211 9.33586 8.20967 9.20455 7.97722 9.20455C7.74478 9.20455 7.53233 9.33586 7.42838 9.54376L4.97384 14.4529C4.82227 14.756 4.94512 15.1246 5.24832 15.2762C5.55127 15.4276 5.92 15.3048 6.07151 15.0017ZM7.97722 11.1903L8.82527 12.8864H7.12918L7.97722 11.1903Z" fill="white"/>
<path d="M12.8864 15.3409H14.7273C15.7423 15.3409 16.5682 14.5151 16.5682 13.5C16.5682 13.029 16.3904 12.5987 16.0983 12.2727C16.3904 11.9468 16.5682 11.5165 16.5682 11.0455C16.5682 10.0304 15.7423 9.20455 14.7273 9.20455H12.8864C12.5475 9.20455 12.2727 9.47927 12.2727 9.81818V14.7273C12.2727 15.0662 12.5475 15.3409 12.8864 15.3409ZM13.5 10.4318H14.7273C15.0656 10.4318 15.3409 10.7071 15.3409 11.0455C15.3409 11.3838 15.0656 11.6591 14.7273 11.6591H13.5V10.4318ZM13.5 12.8864H14.7273C15.0656 12.8864 15.3409 13.1616 15.3409 13.5C15.3409 13.8384 15.0656 14.1136 14.7273 14.1136H13.5V12.8864Z" fill="white"/>
<path d="M20.8636 15.3409H21.4773C21.8161 15.3409 22.0909 15.0662 22.0909 14.7273C22.0909 14.3884 21.8161 14.1136 21.4773 14.1136H20.8636C19.8486 14.1136 19.0227 13.2878 19.0227 12.2727C19.0227 11.2576 19.8486 10.4318 20.8636 10.4318H21.4773C21.8161 10.4318 22.0909 10.1571 22.0909 9.81818C22.0909 9.47927 21.8161 9.20455 21.4773 9.20455H20.8636C19.1718 9.20455 17.7955 10.5809 17.7955 12.2727C17.7955 13.9645 19.1718 15.3409 20.8636 15.3409Z" fill="white"/>
</svg>
